<?xml version="1.0" encoding="UTF-8" standalone="no"?>
<svg xmlns="http://www.w3.org/2000/svg" width="256" height="256" viewBox="0 0 256 256" version="1.1">
  <defs>
    <filter id="glow" x="-60%" y="-60%" width="220%" height="220%">
      <feGaussianBlur stdDeviation="3.2" result="b"/>
      <feMerge><feMergeNode in="b"/><feMergeNode in="SourceGraphic"/></feMerge>
    </filter>
    <filter id="runeglow" x="-40%" y="-40%" width="180%" height="180%">
      <feGaussianBlur stdDeviation="1.4" result="b"/>
      <feMerge><feMergeNode in="b"/><feMergeNode in="SourceGraphic"/></feMerge>
    </filter>
  </defs>

  <!-- signal rings morphing from rune outwards into the shield outline; light blue, glowing -->
  <g fill="none" stroke-linejoin="round" filter="url(#glow)">
    <path d="M 98.59,102.12 L 101.59,100.44 L 104.83,98.75 L 108.30,97.11 L 112.00,95.58 L 115.90,94.23 L 119.92,93.09 L 123.98,92.22 L 128.00,91.60 L 132.02,92.22 L 136.08,93.09 L 140.10,94.23 L 144.00,95.58 L 147.70,97.11 L 151.17,98.75 L 154.41,100.44 L 157.41,102.12 L 158.26,104.90 L 159.12,107.87 L 159.96,111.06 L 160.74,114.47 L 161.41,118.09 L 161.90,121.90 L 162.16,125.84 L 162.17,129.82 L 161.79,134.16 L 160.95,138.20 L 159.71,141.96 L 158.11,145.43 L 156.18,148.64 L 153.95,151.59 L 151.42,154.28 L 148.64,156.71 L 145.61,158.86 L 142.36,160.73 L 138.94,162.31 L 135.37,163.57 L 131.71,164.54 L 128.00,165.20 L 124.29,164.54 L 120.63,163.57 L 117.06,162.31 L 113.64,160.73 L 110.39,158.86 L 107.36,156.71 L 104.58,154.28 L 102.05,151.59 L 99.82,148.64 L 97.89,145.43 L 96.29,141.96 L 95.05,138.20 L 94.21,134.16 L 93.83,129.82 L 93.84,125.84 L 94.10,121.90 L 94.59,118.09 L 95.26,114.47 L 96.04,111.06 L 96.88,107.87 L 97.74,104.90 Z" stroke="#5cc6ff" stroke-opacity="0.85" stroke-width="2.4"/>
    <path d="M 86.05,91.08 L 90.81,89.18 L 95.73,87.27 L 100.83,85.39 L 106.09,83.60 L 111.49,81.93 L 116.99,80.42 L 122.51,79.10 L 128.00,77.96 L 133.49,79.10 L 139.01,80.42 L 144.51,81.93 L 149.91,83.60 L 155.17,85.39 L 160.27,87.27 L 165.19,89.18 L 169.95,91.08 L 170.56,95.51 L 171.19,100.07 L 171.80,104.79 L 172.36,109.66 L 172.85,114.70 L 173.20,119.86 L 173.39,125.13 L 173.40,130.42 L 172.99,136.20 L 171.98,141.62 L 170.43,146.67 L 168.39,151.38 L 165.89,155.75 L 162.96,159.79 L 159.63,163.49 L 155.93,166.85 L 151.89,169.88 L 147.55,172.56 L 142.95,174.89 L 138.12,176.86 L 133.12,178.47 L 128.00,179.72 L 122.88,178.47 L 117.88,176.86 L 113.05,174.89 L 108.45,172.56 L 104.11,169.88 L 100.07,166.85 L 96.37,163.49 L 93.04,159.79 L 90.11,155.75 L 87.61,151.38 L 85.57,146.67 L 84.02,141.62 L 83.01,136.20 L 82.60,130.42 L 82.61,125.13 L 82.80,119.86 L 83.15,114.70 L 83.64,109.66 L 84.20,104.79 L 84.81,100.07 L 85.44,95.51 Z" stroke="#5cc6ff" stroke-opacity="0.7" stroke-width="2.6"/>
    <path d="M 73.51,80.05 L 80.02,77.92 L 86.63,75.79 L 93.35,73.68 L 100.18,71.61 L 107.09,69.63 L 114.05,67.74 L 121.04,65.97 L 128.00,64.32 L 134.96,65.97 L 141.95,67.74 L 148.91,69.63 L 155.82,71.61 L 162.65,73.68 L 169.37,75.79 L 175.98,77.92 L 182.49,80.05 L 182.87,86.12 L 183.26,92.27 L 183.63,98.51 L 183.98,104.86 L 184.28,111.30 L 184.50,117.83 L 184.62,124.41 L 184.63,131.02 L 184.18,138.24 L 183.01,145.03 L 181.15,151.39 L 178.66,157.33 L 175.59,162.86 L 171.96,167.98 L 167.83,172.69 L 163.22,177.00 L 158.18,180.90 L 152.74,184.39 L 146.96,187.47 L 140.88,190.14 L 134.54,192.39 L 128.00,194.24 L 121.46,192.39 L 115.12,190.14 L 109.04,187.47 L 103.26,184.39 L 97.82,180.90 L 92.78,177.00 L 88.17,172.69 L 84.04,167.98 L 80.41,162.86 L 77.34,157.33 L 74.85,151.39 L 72.99,145.03 L 71.82,138.24 L 71.37,131.02 L 71.38,124.41 L 71.50,117.83 L 71.72,111.30 L 72.02,104.86 L 72.37,98.51 L 72.74,92.27 L 73.13,86.12 Z" stroke="#5cc6ff" stroke-opacity="0.58" stroke-width="2.8"/>
    <path d="M 62.69,70.52 L 70.71,68.20 L 78.78,65.87 L 86.90,63.56 L 95.07,61.26 L 103.28,59.00 L 111.52,56.80 L 119.76,54.64 L 128.00,52.54 L 136.24,54.64 L 144.48,56.80 L 152.72,59.00 L 160.93,61.26 L 169.10,63.56 L 177.22,65.87 L 185.29,68.20 L 193.31,70.52 L 193.49,78.01 L 193.68,85.53 L 193.85,93.10 L 194.02,100.71 L 194.16,108.37 L 194.27,116.07 L 194.32,123.80 L 194.32,131.54 L 193.85,140.01 L 192.53,147.98 L 190.41,155.47 L 187.54,162.47 L 183.97,169.00 L 179.74,175.05 L 174.91,180.64 L 169.52,185.76 L 163.61,190.42 L 157.23,194.61 L 150.42,198.34 L 143.25,201.61 L 135.76,204.42 L 128.00,206.78 L 120.24,204.42 L 112.75,201.61 L 105.58,198.34 L 98.77,194.61 L 92.39,190.42 L 86.48,185.76 L 81.09,180.64 L 76.26,175.05 L 72.03,169.00 L 68.46,162.47 L 65.59,155.47 L 63.47,147.98 L 62.15,140.01 L 61.68,131.54 L 61.68,123.80 L 61.73,116.07 L 61.84,108.37 L 61.98,100.71 L 62.15,93.10 L 62.32,85.53 L 62.51,78.01 Z" stroke="#5cc6ff" stroke-opacity="0.5" stroke-width="3.0"/>
    <path d="M 53.00,62.00 L 62.38,59.50 L 71.75,57.00 L 81.12,54.50 L 90.50,52.00 L 99.88,49.50 L 109.25,47.00 L 118.62,44.50 L 128.00,42.00 L 137.38,44.50 L 146.75,47.00 L 156.12,49.50 L 165.50,52.00 L 174.88,54.50 L 184.25,57.00 L 193.62,59.50 L 203.00,62.00 L 203.00,70.75 L 203.00,79.50 L 203.00,88.25 L 203.00,97.00 L 203.00,105.75 L 203.00,114.50 L 203.00,123.25 L 203.00,132.00 L 202.50,141.58 L 201.05,150.62 L 198.69,159.11 L 195.48,167.07 L 191.47,174.49 L 186.71,181.38 L 181.25,187.75 L 175.15,193.60 L 168.46,198.93 L 161.24,203.75 L 153.52,208.06 L 145.38,211.87 L 136.85,215.18 L 128.00,218.00 L 119.15,215.18 L 110.62,211.87 L 102.48,208.06 L 94.76,203.75 L 87.54,198.93 L 80.85,193.60 L 74.75,187.75 L 69.29,181.38 L 64.53,174.49 L 60.52,167.07 L 57.31,159.11 L 54.95,150.62 L 53.50,141.58 L 53.00,132.00 L 53.00,123.25 L 53.00,114.50 L 53.00,105.75 L 53.00,97.00 L 53.00,88.25 L 53.00,79.50 L 53.00,70.75 Z" stroke="#7fd4ff" stroke-opacity="0.75" stroke-width="3.4"/>
  </g>

  <!-- Bluetooth rune, dark blue, centred in the shield -->
  <g transform="translate(89.6,89.6) scale(3.2)" filter="url(#runeglow)">
    <path d="M17.71 7.71L12 2h-1v7.59L6.41 5 5 6.41 10.59 12 5 17.59 6.41 19 11 14.41V22h1l5.71-5.71-4.3-4.29 4.3-4.29zM13 5.83l1.88 1.88L13 9.59V5.83zm1.88 10.46L13 18.17v-3.76l1.88 1.88z"
          fill="#0a3a8c"/>
  </g>
</svg>
